<svg xmlns="http://www.w3.org/2000/svg" version="1.1" xmlns:xlink="http://www.w3.org/1999/xlink" width="512" height="512" x="0" y="0" viewBox="0 0 24 24" style="enable-background:new 0 0 512 512" xml:space="preserve" class=""><g><path d="M11.982 14.982a.997.997 0 0 1-.707-.293l-2.982-2.982a.999.999 0 1 1 1.414-1.414l2.275 2.275 7.293-7.293a.999.999 0 1 1 1.414 1.414l-8 8a1 1 0 0 1-.707.293z" fill="#5ac4b4" opacity="1" data-original="#000000" class=""></path><path d="M12 20c-4.411 0-8-3.589-8-8s3.589-8 8-8c1.193 0 2.342.257 3.414.763a1 1 0 1 1-.855 1.809A6.006 6.006 0 0 0 6 12c0 3.309 2.691 6 6 6s6-2.691 6-6a1 1 0 1 1 2 0c0 4.411-3.589 8-8 8z" fill="#5ac4b4" opacity="1" data-original="#000000" class=""></path></g></svg>